<svg width="32" height="32" viewBox="0 0 32 32" fill="none" xmlns="http://www.w3.org/2000/svg">
<path d="M2.32102 20V9.09091H6.13494C6.89489 9.09091 7.52166 9.2223 8.01527 9.48509C8.50888 9.74432 8.87642 10.0941 9.1179 10.5344C9.35938 10.9712 9.48011 11.456 9.48011 11.9886C9.48011 12.4574 9.39666 12.8445 9.22976 13.1499C9.06641 13.4553 8.84979 13.6967 8.5799 13.8743C8.31357 14.0518 8.02415 14.1832 7.71165 14.2685V14.375C8.04545 14.3963 8.38104 14.5135 8.7184 14.7266C9.05575 14.9396 9.33807 15.245 9.56534 15.6428C9.79261 16.0405 9.90625 16.527 9.90625 17.1023C9.90625 17.6491 9.78196 18.141 9.53338 18.5778C9.2848 19.0146 8.8924 19.3608 8.35618 19.6165C7.81996 19.8722 7.12216 20 6.26278 20H2.32102ZM3.64205 18.8281H6.26278C7.12571 18.8281 7.73828 18.6612 8.1005 18.3274C8.46626 17.9901 8.64915 17.5817 8.64915 17.1023C8.64915 16.733 8.55504 16.392 8.36683 16.0795C8.17862 15.7635 7.91051 15.5114 7.5625 15.3232C7.21449 15.1314 6.80256 15.0355 6.3267 15.0355H3.64205V18.8281ZM3.64205 13.8849H6.09233C6.49006 13.8849 6.84872 13.8068 7.16832 13.6506C7.49148 13.4943 7.74716 13.2741 7.93537 12.9901C8.12713 12.706 8.22301 12.3722 8.22301 11.9886C8.22301 11.5092 8.05611 11.1026 7.7223 10.7688C7.38849 10.4315 6.85938 10.2628 6.13494 10.2628H3.64205V13.8849ZM11.4803 10.2628V9.09091H19.6621V10.2628H16.2317V20H14.9107V10.2628H11.4803ZM20.7634 22.642V18.8281H21.4665C21.708 18.608 21.9353 18.2972 22.1483 17.896C22.365 17.4911 22.5479 16.9513 22.697 16.2766C22.8497 15.5984 22.9509 14.7372 23.0006 13.6932L23.235 9.09091H29.7123V18.8281H30.9694V22.6207H29.7123V20H22.0205V22.642H20.7634ZM23.0432 18.8281H28.4552V10.2628H24.4282L24.2577 13.6932C24.2151 14.4886 24.1405 15.2095 24.034 15.8558C23.9275 16.4986 23.7907 17.0685 23.6238 17.5657C23.4569 18.0593 23.2634 18.4801 23.0432 18.8281Z" fill="#3399FF"/>
</svg>
